<svg id="Ebene_1" data-name="Ebene 1" xmlns="http://www.w3.org/2000/svg" viewBox="0 0 429.98 175.64"><defs><style>.cls-1{fill:#fff;}</style></defs><title>RIDDLE&amp;amp;CODE_MAINLOGO_NEG</title><path class="cls-1" d="M629.28,225.18a6.58,6.58,0,1,0,6.65,6.56A6.57,6.57,0,0,0,629.28,225.18Zm0,12.09a5.52,5.52,0,1,1,5.37-5.53A5.34,5.34,0,0,1,629.28,237.28Z" transform="translate(-205.96 -209.82)"/><path class="cls-1" d="M632.32,230.13c0-1.49-.89-2.16-2.7-2.16h-2.91v7.59h1.17v-3.3h1.31l2,3.3h1.28l-2.16-3.33A2,2,0,0,0,632.32,230.13Zm-4.43,1.17v-2.38h1.58c1.33,0,1.68.41,1.68,1.13s-.46,1.24-1.88,1.24Z" transform="translate(-205.96 -209.82)"/><path class="cls-1" d="M319.77,342.27l-1.25.52q-.18.08-.55-.37t-.91-1.15a4.3,4.3,0,0,1-.34-2.78A14.79,14.79,0,0,1,318,334a20.14,20.14,0,0,1,2.52-4.3q1.47-1.89,0-3.3T318,326l-.19.2-.05,0q-1.93-.5-2.25,1.84c-.07.49-.16,1-.27,1.51l-1.7,2.43-2.74,3.89a42.48,42.48,0,0,1-3.55,4.3,40.78,40.78,0,0,1-4.86,4.42,55.26,55.26,0,0,1-5.13,3.58A14.33,14.33,0,0,1,292.1,350a15.7,15.7,0,0,1-5.37,0,25.87,25.87,0,0,1-5.89-1.9,32.63,32.63,0,0,1-6.1-3.54q-2.88-2.11-5.73-4.33l-.5-.38c.75-1.74,1.5-3.49,2.22-5.21q3.12-7.41,6.72-15.92,3.9-1.81,8-3.9,5.91-3,13.1-6.89t15.21-8.6q8-4.69,15.39-9.3T343,281.31q6.37-4.14,11.25-7.67t8.87-6.9q4-3.38,7.32-6.54a40.67,40.67,0,0,0,5.26-5.91,19.09,19.09,0,0,0,2.73-5.37,7.88,7.88,0,0,0-.08-5.08,8.54,8.54,0,0,0-4-4.28,26.54,26.54,0,0,0-7.77-2.87q-4.67-1-10.92-1.86a102.72,102.72,0,0,0-13-.85,115.41,115.41,0,0,0-14,.84A122.7,122.7,0,0,0,314,237.48q-7.36,1.8-14.41,4.21T285.71,247q-6.79,2.92-13.5,6.32T259,260.63q-6.52,3.88-12.53,8t-11.26,8.17q-5.25,4.08-9.35,7.73t-7.23,6.82q-3.13,3.18-5.23,5.76a42.06,42.06,0,0,0-3.68,5.33,28.47,28.47,0,0,0-2.37,5q-.78,2.3-1.17,3.78a3.27,3.27,0,0,0,0,2.2q1.85,3.35,3.25-.14,0-.74,0-1.83a25.5,25.5,0,0,1,.32-3.2,16.67,16.67,0,0,1,1.56-4.7,30,30,0,0,1,3.15-5.1q1.91-2.52,4.91-5.8t7-7q4-3.71,9.2-7.85t11.15-8.25q6-4.11,12.45-8t13.16-7.26q6.68-3.38,13.43-6.27t13.76-5.3q7-2.41,14.3-4.2a118.28,118.28,0,0,1,14.5-2.63,109.64,109.64,0,0,1,13.85-.77,101.7,101.7,0,0,1,12.81.92,87.61,87.61,0,0,1,10.55,2,21.06,21.06,0,0,1,6.79,2.91q2.4,1.73,2.48,3.27a15.61,15.61,0,0,1-2.33,8.56,38.86,38.86,0,0,1-4.42,5.81,82.4,82.4,0,0,1-6.75,6.7q-3.83,3.41-8.57,7t-11,7.83q-6.22,4.25-13.52,8.91t-15.27,9.37q-8,4.71-15.2,8.55t-13.21,6.71q-3.13,1.5-6.11,2.85,3.41-8,6.71-15.65,3.62-8.34,7.64-16.9t7-14.28q3-5.72,5.16-9.19t3.13-4.92a4.52,4.52,0,0,0,.92-2.4q-1.42-4.2-5.24-1.64a7.32,7.32,0,0,0-.91,2.3q-.38,1.51-1.55,5.34a100.3,100.3,0,0,1-3.72,9.72q-2.54,5.89-6.3,14.56t-7.4,17q-3.57,8.17-7.21,16.86c-1.2.53-2.38,1.05-3.54,1.55q-5.44,2.34-10,4.07t-9,3.41c-2,.74-3.74,1.37-5.33,1.89a7.25,7.25,0,0,0-2.31-.35l-2,.14a6.37,6.37,0,0,0-2.17.6,3.55,3.55,0,0,0-1.6,1.3,1.46,1.46,0,0,0-.18.58.88.88,0,0,0-.48,1.19q.42,1.18,1.08,1.12h0c.46.56,1.16.64,2.1.21l2.58-1.13.91.09a24.27,24.27,0,0,1,3.7.77,29.17,29.17,0,0,1,5,1.89,57.46,57.46,0,0,1,5.6,3.13c1.81,1.14,3.57,2.37,5.28,3.67l-3.68,8.42q-3.53,8.05-6.36,14.37t-4.69,10.9q-1.86,4.58-2.92,7.52.2,5.14,2.84.61a55.16,55.16,0,0,1,2.07-7.58q1.54-4.61,4.2-11t6.22-14.4q1.79-4,3.49-8c1.68,1.29,3.41,2.59,5.2,3.89a35.92,35.92,0,0,0,6.43,3.71,38.21,38.21,0,0,0,6.32,2.24,14.48,14.48,0,0,0,6.11.15,17.23,17.23,0,0,0,5.91-2.21,46.54,46.54,0,0,0,5.48-3.91,57.44,57.44,0,0,0,5.06-4.67q2.29-2.39,3.83-4.31c.63-.78,1.23-1.56,1.82-2.33a30.65,30.65,0,0,0-.73,3.11,18.19,18.19,0,0,0-.34,4.09,4.7,4.7,0,0,0,1.12,2.82,3.94,3.94,0,0,0,2.86,1.35,5.75,5.75,0,0,0,3.24-.63Q323.57,342,319.77,342.27ZM267.36,339c-1.36-1-2.74-2.05-4.13-3a62.35,62.35,0,0,0-5.56-3.53q-2.62-1.46-4.86-2.52l-1-.44,3.57-1.37q4.48-1.69,8.92-3.57t9.85-4.28l1.51-.68c-2.19,5.22-4.29,10.12-6.27,14.68Z" transform="translate(-205.96 -209.82)"/><path class="cls-1" d="M325.75,316.53q-1-1.74-1.58.76a1.51,1.51,0,0,0,0,1.44q2,2.41,2.29-1.09A1.46,1.46,0,0,0,325.75,316.53Z" transform="translate(-205.96 -209.82)"/><path class="cls-1" d="M358.12,337.51a6.27,6.27,0,0,1-2.68.28q-.55-.21-.71-2.17a21.65,21.65,0,0,1,.16-4.45A34.26,34.26,0,0,1,357,324q1.76-4.64,4.63-10.44,2.27-4.58,5.07-9.66l.58-1q2.64-4.51,5.47-9.25c1.22-2,2.4-4,3.53-5.83q2.42-3.66,4.68-6.67a42.3,42.3,0,0,1,5-5.77q2.18-2,.83-3.44c-.63-.67-1.18-.84-1.68-.53a3.36,3.36,0,0,0-.64-.25q-2-.57-3,2a44.7,44.7,0,0,1-3.28,6.66q-2.33,4.05-5.29,9t-6.46,11.63Q363,307.21,360,313l-.75,1.48q-1.29,2.12-2.66,4.26a4,4,0,0,0-1.29-1.62,6.16,6.16,0,0,0-3.21-1.19,10.66,10.66,0,0,0-4.2.59,22.51,22.51,0,0,0-4.88,2.31,30.5,30.5,0,0,0-5.14,4.09,40.06,40.06,0,0,0-4.72,5.48,36.8,36.8,0,0,0-3.52,6,49.26,49.26,0,0,0-2.11,5.22,14.24,14.24,0,0,0-.77,3.82,3.34,3.34,0,0,0,1.22,2.76,4.11,4.11,0,0,0,2.89,1.07,14.08,14.08,0,0,0,3.33-.51,13.77,13.77,0,0,0,3.55-1.58,17.86,17.86,0,0,0,3.6-3,57,57,0,0,0,4.12-5q2.35-3.15,5.17-7.36,1.42-2.12,2.87-4.34h0a6.57,6.57,0,0,0,.17,1q-1.06,2.47-1.75,4.13a12.91,12.91,0,0,0-1,5.17,5.13,5.13,0,0,0,1.94,4.11,4.5,4.5,0,0,0,4.64.56Q362.23,337.46,358.12,337.51Zm-4.06-15.39c-.1.32-.18.6-.25.85q-2,3-4,5.85-2.88,4.06-5.32,6.9t-4,4.36a13.81,13.81,0,0,1-3,2.25,9.74,9.74,0,0,1-2.6,1,6,6,0,0,1-2.05.09q-.87-.14-.93,0t-.39-.58a6.38,6.38,0,0,1-.2-2.65,15.17,15.17,0,0,1,1.36-4.79,31,31,0,0,1,3.19-5.63,26.19,26.19,0,0,1,4.6-5,28.52,28.52,0,0,1,5-3.44,13.46,13.46,0,0,1,4.46-1.5,10.53,10.53,0,0,1,3.09-.08,2.59,2.59,0,0,1,1.27.5q.3.31.27.5T354.06,322.12Z" transform="translate(-205.96 -209.82)"/><path class="cls-1" d="M437.85,257.74q-2.53-.36-4.71,2.51T428,266.89a87.25,87.25,0,0,0-5.92,8.75q-3,5-5.51,10.11t-4.84,10.59q-2.3,5.45-4,10-1,2.54-1.84,5c-1.05,1.39-2.07,2.72-3,4q-2.5,3.23-4.68,5.85T393.81,326q-2.14,2.3-3.7,3.71a32.86,32.86,0,0,1-3,2.42,10.82,10.82,0,0,1-2.65,1.43q-1.22.42-1.27.72t-.27-1.3a14.7,14.7,0,0,1,.32-4.44,40.11,40.11,0,0,1,2.18-7q1.64-4.16,3.92-8.88t4.91-9.61q2.63-4.9,4.9-9t5.15-8.35a78,78,0,0,1,5.12-6.82q2.24-2.6,1.86-4.51-.24-1.19-.86-.79a1.66,1.66,0,0,0-1.06,0q-2.13.54-3.58,3.55t-3.94,7.44q-2.49,4.43-4.85,8.56t-4.85,9.1c-1.27,2.52-2.49,5-3.7,7.4q-1.11,1.83-2.24,3.63a3.15,3.15,0,0,0-2.27-2.15,5.49,5.49,0,0,0-4,.59,18.57,18.57,0,0,0-5.11,4.26,71.05,71.05,0,0,0-5.61,7.1q-2.75,3.94-4.67,7.37a37.13,37.13,0,0,0-2.68,5.64q-.76,2.2.48,3.29a3.56,3.56,0,0,0,2.94.87,7.68,7.68,0,0,0,3.65-1.77,34,34,0,0,0,3.66-3.36,47.79,47.79,0,0,0,3.81-4.72q2.1-2.91,4.27-6.14l.38-.57a4.42,4.42,0,0,0,.63-.26,5.36,5.36,0,0,1,.6-.52q-1.2,2.88-2,5.07a22,22,0,0,0-1.24,5.26,3.49,3.49,0,0,0,1.56,3.48,3.36,3.36,0,0,0,3.63.19,24.59,24.59,0,0,0,3.47-2.18,33.94,33.94,0,0,0,3.27-2.85,51.16,51.16,0,0,0,3.74-4.18l4.27-5.24q2.19-2.69,4.65-6l.76-1q-1.33,3.9-2.39,7.24-1.12,3.52-1.93,6.45a16.72,16.72,0,0,0-.74,4.88,2.72,2.72,0,0,0,1.9,2.65,4.19,4.19,0,0,0,3.85-.58,34.73,34.73,0,0,0,3.86-2.82q1.83-1.54,3.64-3.13t3.24-3a4.94,4.94,0,0,0,2.21,3.34q2.37,1.55,7,.68a51.62,51.62,0,0,0,10.19-3.18q6.57-3.42.12-1.5a32.78,32.78,0,0,1-9.49,2.34,18.2,18.2,0,0,1-5.46-.17q-1.37-.43-1.36-3.08a18.7,18.7,0,0,1,.15-2.18l.32-.39q1.89-2.35,3.7-4.58t3.54-4.76q1.73-2.53,2.78-4.43a21.62,21.62,0,0,0,1.66-3.78q.61-1.88-1.54-3.15t-3.59.43q-1.44,1.7-3.2,3.91a25.47,25.47,0,0,0-3.32,5.9q-1.57,3.7-2.7,6.78a18.94,18.94,0,0,0-1.09,5l-.65.68q-1.5,1.55-3.28,3.09t-3.52,2.89a12.89,12.89,0,0,1-3.19,1.91q-1.45.56-1.36.74t-.44-.52q-.53-.71,0-3.47t1.43-6.3q.92-3.53,2.24-7.68,1-3.26,2.21-6.77,2.71-3.76,6.32-9,3.81-5.48,7.74-11.2T430.33,278q3.13-5,5.11-8.28t3.12-5.56A15.49,15.49,0,0,0,440,260Q440.38,258.1,437.85,257.74ZM382,318.4a4.41,4.41,0,0,0-1.16,1.48,12.45,12.45,0,0,1-.74,1.47,4.78,4.78,0,0,0-.29,1.7l-.06.09q-2.17,3.14-4.35,5.79t-3.73,4.23a13.9,13.9,0,0,1-3.13,2.45,5,5,0,0,1-2,.82.67.67,0,0,0-.69.31q-.24.37-.35-.81t1.53-4.55a45.67,45.67,0,0,1,4.42-7.13,31.65,31.65,0,0,1,6-6.24q3.2-2.48,4.87-2.81a16.92,16.92,0,0,1,1.88-.32h.1a2.91,2.91,0,0,0-.23.55,7.2,7.2,0,0,1-.69,1.41A7.3,7.3,0,0,1,382,318.4Zm40.59-4.71a23.12,23.12,0,0,1,3.68-5.11,17.39,17.39,0,0,1,2.59-2.14c-.19.49-.41,1-.66,1.59a26.18,26.18,0,0,1-2.48,4.24q-1.67,2.39-3.43,4.6c-.74.92-1.5,1.83-2.28,2.74A29.2,29.2,0,0,1,422.59,313.69Zm14.73-50.43a58.55,58.55,0,0,1-2.71,5.67q-1.8,3.38-4.88,8.4t-7,10.7q-3.93,5.69-7.83,11-2.4,3.3-4.4,6,1.36-3.78,3.21-8.11,2.32-5.41,4.82-10.5a99.88,99.88,0,0,1,5.59-9.9,65.72,65.72,0,0,1,6.24-8.33,33,33,0,0,1,6-5.43c.66-.44,1.19-.83,1.59-1.16C437.78,262.08,437.57,262.62,437.32,263.26Z" transform="translate(-205.96 -209.82)"/><path class="cls-1" d="M499.4,282.6q-3,4.22-7.72,9.71t-9.3,10.19c-1.91,1.94-3.79,3.68-5.65,5.27-.2-2.9-.37-5.75-.51-8.49q-.26-5-.37-9.68c0-1.9-.05-3.68,0-5.37,1.2-.84,2.37-1.67,3.5-2.49q2.37-1.71,4.38-3.25a37.88,37.88,0,0,0,3.62-3.12,25.26,25.26,0,0,0,2.85-3.34,17.33,17.33,0,0,0,2-3.78,15.85,15.85,0,0,0,1-4.17,11.82,11.82,0,0,0-.32-4.2,8.36,8.36,0,0,0-1.83-3.51,8.61,8.61,0,0,0-3.08-2.22,10.07,10.07,0,0,0-3.47-.85,14.42,14.42,0,0,0-3.07.15,25.32,25.32,0,0,0-2.66.59,6.24,6.24,0,0,0-2.1,1,8.58,8.58,0,0,0-1.68,1.81,3.54,3.54,0,0,0-.7,2.58l.36,3.08q.2,1.69.24,4.58t0,6.54q-.07,3.59-.12,7.38c-.91.71-1.85,1.42-2.82,2.13q-2.48,1.81-5,3.53t-5,3.2q-2.47,1.48-4.73,3a29.58,29.58,0,0,0-4.05,3.33,18,18,0,0,0-3,3.86,17.23,17.23,0,0,0-1.75,4.27,13,13,0,0,0-.39,4.32,11.48,11.48,0,0,0,1.12,4.08,11,11,0,0,0,2.55,3.41,14.62,14.62,0,0,0,3.66,2.41,8.92,8.92,0,0,0,4.84.64,17.84,17.84,0,0,0,6-1.91A42.73,42.73,0,0,0,473.7,312c.65-.54,1.31-1.11,2-1.69q.1,5,0,8.29-.11,3.44-.38,5.6a5,5,0,0,0,.16,2.86,5.09,5.09,0,0,1,.61,1.4q1.06,2.21,1.57-.36a2,2,0,0,1,.38-1.35q.43-.6.06-2.72a54.52,54.52,0,0,1-.6-5.57q-.23-3.44-.6-8.8l0-.39c2-1.79,4-3.71,6-5.8q4.63-4.81,9.32-10.36T500,283.4Q503.51,277.78,499.4,282.6Zm-23.29-9q.09-3.68.17-6.6t.11-4.8q0-1.88,0-2.75a3.66,3.66,0,0,0,0-.92s.13-.07.5-.14a6.72,6.72,0,0,0,1.6-.6,7.22,7.22,0,0,1,2.07-.66q1-.15,2.29-.22a5.48,5.48,0,0,1,2.35.37,4.8,4.8,0,0,1,1.83,1.29,6.57,6.57,0,0,1,1.23,2.21,7.41,7.41,0,0,1,.36,3,11.92,11.92,0,0,1-.71,3.26,13.24,13.24,0,0,1-1.65,3.13,27.55,27.55,0,0,1-2.44,3,43,43,0,0,1-3.2,3q-1.82,1.57-4,3.37l-.69.55C476,277.87,476.06,275.71,476.11,273.59Zm-2.78,36.93a39.44,39.44,0,0,1-7.21,4.53,13.9,13.9,0,0,1-4.87,1.29,7.41,7.41,0,0,1-3.47-.56,10.25,10.25,0,0,1-2.61-1.81,8.54,8.54,0,0,1-1.91-2.55,9.9,9.9,0,0,1-.88-3,9.72,9.72,0,0,1,.16-3.34,13.76,13.76,0,0,1,1.3-3.53,16.25,16.25,0,0,1,2.39-3.38,23.88,23.88,0,0,1,3.5-3.12q2-1.51,4.46-3t5-3.28q2.6-1.74,5.18-3.53l.36-.25c0,1.49,0,3.06.09,4.71q.14,4.71.43,9.72c.17,3,.29,6.11.37,9.3Q474.47,309.66,473.33,310.52Z" transform="translate(-205.96 -209.82)"/><path class="cls-1" d="M618.27,209.88q-2.24-.56-4.5,4.28a105.25,105.25,0,0,1-6.6,11.65q-4.35,6.81-9.48,15.41t-9.33,16q-4.2,7.45-7.59,13.6t-5.88,10.77q-2.49,4.62-4.2,8.34c-.17.36-.32.72-.48,1.08,0-.26,0-.53,0-.79a8.51,8.51,0,0,0-1.57-4.76,4.22,4.22,0,0,0-3.93-1.8,6.53,6.53,0,0,0-3.13,1,2.76,2.76,0,0,0-2.07-.48,22.15,22.15,0,0,0-3.14.83l-3.56,1.22q-1.92.66-4,1.28a13.32,13.32,0,0,1-4.6.48,18.73,18.73,0,0,1-4.19-.62,2.11,2.11,0,0,0-2.39.65,4.82,4.82,0,0,0-.89-.17q-1.43-.12-1.23,1.64s0,.08,0,.13c-1.16-.21-1.87.45-2.1,2s-.7,3.65-1.4,6.39c-.72,1.31-1.56,2.71-2.55,4.21q-1.82,2.77-3.85,5.39a46.88,46.88,0,0,1-4.45,5,35,35,0,0,1-4.77,3.94,15,15,0,0,1-4.39,2.13,8.37,8.37,0,0,1-3.3.36,5.43,5.43,0,0,1-2.17-.79,4.62,4.62,0,0,1-1.54-2.51q-.62-1.92.85-7.44a128.44,128.44,0,0,1,4.28-12.8,173.83,173.83,0,0,1,7.26-16.05q4.46-8.77,9.09-16.47t9.8-15q5.16-7.26,9.53-12.42a85.41,85.41,0,0,1,7.86-8.29,27.06,27.06,0,0,1,6-4.32,6.41,6.41,0,0,1,4.29-.72,5,5,0,0,1,3,2.21,8.84,8.84,0,0,1,1.09,5.08,21.68,21.68,0,0,1-1.2,6.62,40.47,40.47,0,0,1-3.26,7,50,50,0,0,1-4.47,6.57q-2.34,2.88-3.84,4.48t-2.37,2.64q-1.54,4.32,2.08,2.49a19.52,19.52,0,0,0,2.14-2.89q1.24-1.95,3.35-5.2t4.2-7.13a53.12,53.12,0,0,0,3.33-7.39,23,23,0,0,0,1.31-7.27,12,12,0,0,0-1.47-6.4,7.07,7.07,0,0,0-4.37-3.41,7.52,7.52,0,0,0-5.81.89,26.18,26.18,0,0,0-6.22,5.17q-3.25,3.51-7.38,8.88t-9.14,12.75q-5,7.38-9.65,15.11T516.22,279q-4.42,8.83-7.39,16.1T504.12,308a41,41,0,0,0-1.94,8.32,5.67,5.67,0,0,0,1.08,4.23,5.14,5.14,0,0,0,3.54,1.72,10.91,10.91,0,0,0,4.86-.71,20.71,20.71,0,0,0,5.17-2.85,42.59,42.59,0,0,0,5.08-4.45,61.39,61.39,0,0,0,4.62-5.25q2.11-2.71,4-5.54l.2-.31c-.34,1.23-.68,2.43-1,3.58a41.74,41.74,0,0,0-1.46,6.79,8.5,8.5,0,0,0,.45,4.57,3,3,0,0,0,2.44,1.84,7.47,7.47,0,0,0,3.51-.53,15.78,15.78,0,0,0,3.49-1.87,13.84,13.84,0,0,0,2.94-2.84,12.48,12.48,0,0,0,2-3.78,32.62,32.62,0,0,0,1.1-4.39q.41-2.29.62-4.5a26.45,26.45,0,0,0,.09-4.1,10.9,10.9,0,0,0-.81-3.55,10.49,10.49,0,0,0-1.87-3c-.14-.15-.29-.29-.43-.44l1.36-.07a29.24,29.24,0,0,0,5.22-.68q2.32-.54,4.18-1.09l3.51-1,1.26-.36a18.12,18.12,0,0,1-.55,3.2,49,49,0,0,1-1.58,5.14q-1,2.74-1.9,5.57t-1.42,5.09a9.79,9.79,0,0,0-.06,4.29,2.75,2.75,0,0,0,2.58,2.3,6,6,0,0,0,4-.87,18.57,18.57,0,0,0,3.54-2.88,31.21,31.21,0,0,0,3.12-3.76c.44-.62.85-1.27,1.26-2,0,.15-.05.3-.08.44a22.62,22.62,0,0,0-.25,5.13,5.78,5.78,0,0,0,1.43,3.48,3.08,3.08,0,0,0,2.92,1.09,8.18,8.18,0,0,0,2.91-1,23,23,0,0,0,2.48-1.74q1.25-1,2.52-2.1t2.79-2.39q1.52-1.28,3.22-2.88l.21-.2a9.77,9.77,0,0,0,1.61,3.1,8.12,8.12,0,0,0,5.42,2.83,24.85,24.85,0,0,0,8.36-.39q6.29-2.06.59-2a21.43,21.43,0,0,1-7.32,0,8.33,8.33,0,0,1-4.23-2,7,7,0,0,1-1.7-4.35l.62-.68q1.85-2.07,3.56-4.36t3.09-4.55a29,29,0,0,0,2.18-4.23q.79-2,1.25-3.48a5.17,5.17,0,0,0-.08-3.18,3,3,0,0,0-2.19-2.09,3.86,3.86,0,0,0-3,.34,11,11,0,0,0-2.63,2.18q-1.28,1.41-2.47,3a14.65,14.65,0,0,0-2.11,4.42,37.74,37.74,0,0,0-1.39,6.19,27.56,27.56,0,0,0-.13,6.7c0,.05,0,.1,0,.16l-.49.44q-1.64,1.43-3.18,2.61t-2.83,2.22q-1.29,1-2.44,1.85t-2.05,1.3a6.49,6.49,0,0,1-1.38.62,1.69,1.69,0,0,1-.78.05q-.29-.07-.86-1.58a11.84,11.84,0,0,1-.5-4.25,24.51,24.51,0,0,1,1.19-6.43q1.12-3.69,2.55-7.41t3.66-8.41q2.23-4.69,5.49-10.88t7.35-13.67q4.1-7.48,9.34-16t9.89-15.15a69.64,69.64,0,0,1,8.59-10.38,15.33,15.33,0,0,0,2.61-3l0,0a3.13,3.13,0,0,0,.52-1.86Q620.51,210.44,618.27,209.88Zm-75.94,86a8.37,8.37,0,0,1,.68,2.51,17.3,17.3,0,0,1,0,3.48,33.62,33.62,0,0,1-.61,4.16,31.32,31.32,0,0,1-1,3.84,9.67,9.67,0,0,1-1.55,2.91,9.77,9.77,0,0,1-2.23,2,8.55,8.55,0,0,1-2.46,1.17,4.31,4.31,0,0,1-1.88.19,6.16,6.16,0,0,0-1.18-.14q-.49,0-.59-2.52a22.78,22.78,0,0,1,.86-6.29,48.43,48.43,0,0,1,2.81-7.89,26.74,26.74,0,0,1,3.4-6,3.52,3.52,0,0,0,.68-1.14,11.08,11.08,0,0,1,1.72,1.58A8.78,8.78,0,0,1,542.32,295.91Zm45.06-1a17.69,17.69,0,0,1,1.87-5.38,29.55,29.55,0,0,1,2.26-3.61,11.71,11.71,0,0,1,2.24-2.2,6.69,6.69,0,0,1,2.17-1.2l.07,0c0,.16-.08.33-.12.53a26.65,26.65,0,0,1-.86,3.09,20.91,20.91,0,0,1-1.86,4,44.27,44.27,0,0,1-2.89,4.29,44.9,44.9,0,0,1-3.24,3.81A21.69,21.69,0,0,1,587.38,294.94Zm-19.3.48a27.61,27.61,0,0,1-1.88,4.82,30.89,30.89,0,0,1-2.41,4,20.53,20.53,0,0,1-2.82,3.19,12,12,0,0,1-2.82,2l-1.64.78q-.35.16-.62-.47a7.09,7.09,0,0,1-.17-2.59,18.53,18.53,0,0,1,1-4.66q.87-2.7,2-5.35t2.38-4.94q1.22-2.24,1.93-3.75l.37-.13a7,7,0,0,1,2.79-1.48,1.78,1.78,0,0,1,1.66.7,5.51,5.51,0,0,1,.84,3A14,14,0,0,1,568.08,295.42Z" transform="translate(-205.96 -209.82)"/></svg>